<svg xmlns="http://www.w3.org/2000/svg" viewBox="0 0 24 24" width="48px" height="48px">
  <path d="M 12 4 C 9.57 4 7.825 5.98325 8 8.40625 C 8.039 8.94925 8.2725 10.0195 8.3125 10.5625 C 8.3135 10.5705 8.3105 10.58675 8.3125 10.59375 C 8.6255 12.11175 10.353 13 12 13 C 13.647 13 15.0735 12.01575 15.6875 10.59375 C 15.6915 10.58575 15.6855 10.5715 15.6875 10.5625 C 15.8335 10.0375 15.961 8.95025 16 8.40625 C 16.116 6.80025 15.39125 5.2065 13.40625 4.8125 L 13 4 L 12 4 z M 12 15 C 5.923 15 4 19 4 19 L 4 21 L 20 21 L 20 19 C 20 19 18.077 15 12 15 z" fill="#000000" />
</svg>